<svg width="62" height="62" viewBox="0 0 62 62" fill="none" xmlns="http://www.w3.org/2000/svg">
<circle cx="31" cy="31" r="30" stroke="white" stroke-opacity="0.2"/>
<path d="M35.6484 31.2339H32.7188V39.9839H28.8125V31.2339H25.6484V27.6011H28.8125V24.8667C28.8125 23.825 29.0078 22.9396 29.3984 22.2104C29.7891 21.4813 30.3359 20.9344 31.0391 20.5698C31.7682 20.1792 32.6016 19.9839 33.5391 19.9839C33.9557 19.9839 34.3984 20.0099 34.8672 20.062C35.3359 20.0881 35.7005 20.1271 35.9609 20.1792L36.3516 20.2183V23.3042H34.7891C34.0599 23.3042 33.526 23.4995 33.1875 23.8901C32.875 24.2547 32.7188 24.7104 32.7188 25.2573V27.6011H36.1953L35.6484 31.2339Z" fill="white"/>
</svg>
